#!OML:ASF H:\Terrain\Patient Classification 1\Walking\liu\liu.ASF
:FULLY-SPECIFIED
:DEGREES
274
root 9.83034 16.6726 26.5933 8.47579 -9.41937 -3.51767
lowerback -4.41328 4.60056 0.133869
upperback -1.22323 6.08438 3.26058
thorax 0.86302 3.05004 3.57175
lowerneck -18.4706 -5.45834 -12.2851
upperneck 19.1468 -6.75199 11.6001
head 9.96725 -2.76833 5.18674
rclavicle -4.22417e-015 2.8625e-014
rhumerus -23.2037 27.8008 -81.3907
rradius 52.7127
rwrist -21.9192
rhand -31.7598 -20.7061
rfingers 7.12502
rthumb -5.01684 -50.6267
lclavicle -4.22417e-015 2.8625e-014
lhumerus -58.4364 11.736 62.6217
lradius 10.5017
lwrist -34.6873
lhand -5.8182 -26.6601
lfingers 7.12502
lthumb 20.0071 2.32984
rfemur 15.2915 0.280711 23.0472
rtibia 23.9267
rfoot 13.3699 8.16388
rtoes -18.1126
lfemur -45.8289 7.17511 -20.7868
ltibia 38.1183
lfoot -2.0297 4.23323
ltoes -0.907107
275
root 9.83474 16.6727 26.8305 8.28396 -9.06384 -3.01979
lowerback -4.29135 4.37476 -0.400463
upperback -1.3641 5.81525 3.05804
thorax 0.634458 2.91962 3.62855
lowerneck -17.9601 -5.39538 -12.3116
upperneck 18.8145 -6.7697 11.9437
head 9.77251 -2.7585 5.3091
rclavicle -2.98425e-014 -1.59028e-014
rhumerus -23.6584 26.6025 -81.9844
rradius 51.9692
rwrist -21.7155
rhand -32.1121 -21.0384
rfingers 7.12502
rthumb -5.35696 -50.9507
lclavicle -2.98425e-014 -1.59028e-014
lhumerus -57.8895 12.5618 62.1246
lradius 9.924
lwrist -33.6277
lhand -5.01964 -25.7308
lfingers 7.12502
lthumb 20.7745 3.17707
rfemur 13.7804 -0.400596 22.41
rtibia 28.1488
rfoot 13.7796 8.55307
rtoes -21.9173
lfemur -45.5693 7.29257 -21.66
ltibia 39.2217
lfoot -2.60656 3.31641
ltoes 1.32679
276
root 9.85047 16.6778 27.0625 8.04801 -8.79426 -2.24576
lowerback -3.77345 4.07708 -1.22285
upperback -1.76361 5.46522 2.80975
thorax -0.0948087 2.76114 3.75236
lowerneck -17.6487 -5.15877 -11.7584
upperneck 19.1638 -6.54654 11.4659
head 9.76688 -2.6745 5.08507
rclavicle -6.38844e-014 -4.77083e-015
rhumerus -24.7071 25.4896 -82.8921
rradius 51.406
rwrist -21.4432
rhand -33.3191 -21.1933
rfingers 7.12502
rthumb -6.52226 -51.0728
lclavicle -6.38844e-014 -4.77083e-015
lhumerus -58.0236 13.2865 61.3659
lradius 9.63609
lwrist -33.1965
lhand -4.77275 -25.1063
lfingers 7.12502
lthumb 21.0117 3.77546
rfemur 12.2641 -1.27352 21.2188
rtibia 32.1359
rfoot 14.8456 8.07741
rtoes -22.5681
lfemur -45.0025 7.2135 -22.7521
ltibia 40.0259
lfoot -3.4115 2.86452
ltoes 3.55728
277
root 9.87248 16.6889 27.3032 7.89863 -8.72026 -1.5303
lowerback -2.97661 3.82728 -1.94331
upperback -2.59908 5.16281 2.51048
thorax -1.41357 2.64513 3.73819
lowerneck -16.5507 -4.76158 -11.2036
upperneck 19.5116 -6.24516 11.2795
head 9.61627 -2.54623 4.98346
rclavicle 5.87533e-014 -7.15625e-015
rhumerus -26.608 24.4708 -84.2122
rradius 50.8966
rwrist -21.1391
rhand -35.1683 -22.0798
rfingers 7.12502
rthumb -8.30717 -51.8964
lclavicle 5.87533e-014 -7.15625e-015
lhumerus -58.9309 13.6429 60.2913
lradius 9.53215
lwrist -33.1781
lhand -3.74708 -23.7807
lfingers 7.12502
lthumb 21.9968 4.98848
rfemur 10.6168 -1.65063 20.1218
rtibia 36.1956
rfoot 16.114 5.89268
rtoes -17.0516
lfemur -44.2437 7.12913 -23.7359
ltibia 40.4797
lfoot -4.41635 2.6057
ltoes 4.15381
278
root 9.89338 16.7112 27.5473 7.51092 -8.7727 -0.569336
lowerback -4.19857 3.48245 -2.7759
upperback -1.47582 4.73364 2.1761
thorax 0.419423 2.38691 3.98921
lowerneck -17.4459 -4.70112 -11.0207
upperneck 18.8152 -6.2208 11.9703
head 9.55692 -2.42374 5.18279
rclavicle 2.12451e-014 4.77083e-015
rhumerus -24.9108 23.6606 -84.171
rradius 49.9862
rwrist -20.996
rhand -36.1233 -23.0226
rfingers 7.12502
rthumb -9.22881 -52.8006
lclavicle 2.12451e-014 4.77083e-015
lhumerus -56.9626 15.9146 59.8489
lradius 8.96041
lwrist -33.3425
lhand -4.94379 -23.5223
lfingers 7.12502
lthumb 20.8474 5.37764
rfemur 9.13142 -1.80233 18.8897
rtibia 40.242
rfoot 16.9613 3.08124
rtoes -10.9381
lfemur -43.0004 7.00276 -24.8812
ltibia 40.6446
lfoot -5.47339 2.51681
ltoes 4.19494
279
root 9.91169 16.7396 27.7783 7.15635 -8.83199 0.500117
lowerback -3.33647 3.57431 -3.62188
upperback -1.97328 4.86549 1.82051
thorax -0.626035 2.48768 4.01268
lowerneck -17.0056 -4.85397 -11.6666
upperneck 19.2122 -6.41695 12.2955
head 9.6735 -2.54122 5.3982
rclavicle 4.72486e-014 5.56597e-015
rhumerus -26.3231 22.0358 -84.5989
rradius 49.3993
rwrist -20.8899
rhand -36.4596 -23.2569
rfingers 7.12502
rthumb -9.55329 -53.0203
lclavicle 4.72486e-014 5.56597e-015
lhumerus -56.7137 16.0793 59.6676
lradius 8.56334
lwrist -33.717
lhand -6.3442 -23.1788
lfingers 7.12502
lthumb 19.5015 5.86316
rfemur 7.40467 -2.2856 17.4711
rtibia 44.1876
rfoot 17.4469 1.07944
rtoes -10.5306
lfemur -41.7212 6.81563 -26.0767
ltibia 40.589
lfoot -6.42093 2.57558
ltoes 4.57637
280
root 9.93082 16.7742 28.0083 7.02281 -8.71155 1.31136
lowerback -3.3883 3.32936 -4.34437
upperback -1.17534 4.56975 1.46652
thorax 0.225448 2.30626 4.08353
lowerneck -20.4735 -4.90494 -10.4526
upperneck 20.1525 -6.3419 11.3213
head 10.5699 -2.40644 4.85632
rclavicle -2.88735e-014 5.96354e-015
rhumerus -24.6049 20.9411 -84.5728
rradius 48.3214
rwrist -20.8975
rhand -37.1674 -23.3948
rfingers 7.12502
rthumb -10.2362 -53.1257
lclavicle -2.88735e-014 5.96354e-015
lhumerus -54.4575 18.2533 59.5739
lradius 8.08104
lwrist -34.1279
lhand -7.61722 -23.0066
lfingers 7.12502
lthumb 18.2771 6.15473
rfemur 5.3887 -2.94465 16.4092
rtibia 48.0721
rfoot 17.4946 -0.898017
rtoes -12.0932
lfemur -40.5677 6.5513 -27.0204
ltibia 40.3508
lfoot -7.3967 2.52525
ltoes 4.20914
281
root 9.94886 16.8112 28.232 6.95508 -8.65305 1.78804
lowerback -3.70315 3.48084 -4.50629
upperback -0.251619 4.80584 1.31383
thorax 1.32942 2.37541 4.08467
lowerneck -23.2135 -5.50749 -10.9036
upperneck 20.444 -6.77275 11.2631
head 11.2621 -2.56025 4.83916
rclavicle -1.10325e-014 -1.15295e-014
rhumerus -23.0843 19.0709 -83.7438
rradius 47.3075
rwrist -20.7928
rhand -37.924 -23.4846
rfingers 7.12502
rthumb -10.9659 -53.1782
lclavicle -1.10325e-014 -1.15295e-014
lhumerus -51.5239 19.9397 60.6791
lradius 7.58941
lwrist -34.9096
lhand -8.33229 -22.5324
lfingers 7.12502
lthumb 17.5891 6.69192
rfemur 3.33092 -3.46542 15.8094
rtibia 51.8023
rfoot 17.2392 -3.49919
rtoes -10.8474
lfemur -39.3772 6.52684 -27.6697
ltibia 39.9583
lfoot -8.11944 2.39554
ltoes 3.35595
282
root 9.96158 16.848 28.443 7.17923 -9.0819 2.18586
lowerback -3.94065 3.31836 -4.81821
upperback -0.679488 4.60923 1.04928
thorax 1.03824 2.29237 3.97779
lowerneck -21.7279 -4.95391 -10.225
upperneck 19.9032 -6.2669 11.0293
head 10.6855 -2.3516 4.70936
rclavicle -7.55382e-015 3.97569e-016
rhumerus -24.343 18.1054 -84.8056
rradius 46.3481
rwrist -20.272
rhand -38.2346 -22.0367
rfingers 7.12502
rthumb -11.2655 -51.7142
lclavicle -7.55382e-015 3.97569e-016
lhumerus -51.8911 20.8538 59.59
lradius 7.87388
lwrist -36.0407
lhand -8.74837 -22.2486
lfingers 7.12502
lthumb 17.1886 7.01119
rfemur 0.792468 -3.47044 15.3558
rtibia 55.3223
rfoot 15.8528 -5.89239
rtoes -10.7502
lfemur -38.5519 7.0354 -28.3477
ltibia 39.5252
lfoot -8.65223 2.28581
ltoes 2.76155
283
root 9.97748 16.8848 28.6561 6.95831 -9.00133 2.80847
lowerback -4.24914 3.19261 -5.07155
upperback -0.20883 4.48412 0.736693
thorax 1.71554 2.19867 3.83352
lowerneck -21.9779 -4.73146 -9.91976
upperneck 19.3904 -6.00014 11.0791
head 10.5049 -2.1953 4.70472
rclavicle -3.84648e-014 -1.47101e-014
rhumerus -24.0527 16.4931 -85.0175
rradius 45.4526
rwrist -19.6963
rhand -38.2446 -21.7879
rfingers 7.12502
rthumb -11.2751 -51.4649
lclavicle -3.84648e-014 -1.47101e-014
lhumerus -50.3697 22.2823 59.5929
lradius 7.73448
lwrist -37.106
lhand -9.59678 -22.4737
lfingers 7.12502
lthumb 16.3719 6.85527
rfemur -1.10477 -3.65853 14.8075
rtibia 58.4526
rfoot 13.9106 -7.96329
rtoes -9.56323
lfemur -37.2311 7.13415 -29.1575
ltibia 39.0373
lfoot -9.28705 2.10949
ltoes 2.59891
284
root 9.99121 16.9343 28.8659 6.98506 -8.97266 2.91472
lowerback -5.49762 3.09562 -4.74731
upperback 0.857349 4.43393 0.562742
thorax 3.5641 2.1013 3.60128
lowerneck -23.5869 -4.95058 -9.95405
upperneck 19.3715 -6.19541 11.2736
head 10.8285 -2.21586 4.74896
rclavicle 3.30976e-014 -1.27222e-014
rhumerus -22.5704 15.5182 -84.9838
rradius 44.6603
rwrist -20.0286
rhand -39.0485 -24.9347
rfingers 7.12502
rthumb -12.0504 -54.5678
lclavicle 3.30976e-014 -1.27222e-014
lhumerus -47.7692 24.3297 60.1779
lradius 7.56088
lwrist -38.2656
lhand -10.617 -22.9087
lfingers 7.12502
lthumb 15.3894 6.49856
rfemur -3.21505 -3.64409 14.8711
rtibia 61.174
rfoot 11.5019 -9.37942
rtoes -8.75763
lfemur -36.1339 7.14131 -29.3191
ltibia 38.4978
lfoot -9.84496 2.01182
ltoes 3.36772
